<svg xmlns="http://www.w3.org/2000/svg" width="500" height="500" style="width:100%;height:100%;transform:translate3d(0,0,0);content-visibility:visible" viewBox="0 0 500 500"><defs><clipPath id="g"><path d="M0 0h500v500H0z"/></clipPath><clipPath id="n"><path d="M0 0h500v500H0z"/></clipPath><clipPath id="d"><path d="M0 0h500v500H0z"/></clipPath><clipPath id="k"><path d="M0 0h500v500H0z"/></clipPath><clipPath id="e"><path d="M0 0h500v500H0z"/></clipPath><clipPath id="h"><path d="M0 0h500v500H0z"/></clipPath><clipPath id="f"><path d="M0 0h500v500H0z"/></clipPath><filter id="p" width="300%" height="300%" x="-100%" y="-100%"><feGaussianBlur result="filter_result_0" stdDeviation="52.5 52.5"/></filter><filter id="m" width="300%" height="300%" x="-100%" y="-100%"><feGaussianBlur result="filter_result_0" stdDeviation="52.5 52.5"/></filter><filter id="j" width="300%" height="300%" x="-100%" y="-100%"><feGaussianBlur result="filter_result_0" stdDeviation="52.5 52.5"/></filter><mask id="o" mask-type="alpha"><use xmlns:ns1="http://www.w3.org/1999/xlink" ns1:href="#a"/></mask><mask id="l" mask-type="alpha"><use xmlns:ns2="http://www.w3.org/1999/xlink" ns2:href="#b"/></mask><mask id="i" mask-type="alpha"><use xmlns:ns3="http://www.w3.org/1999/xlink" ns3:href="#c"/></mask><g id="a" fill-opacity="0" stroke-linecap="round" stroke-linejoin="round" stroke-width="3.54" clip-path="url(#d)" style="display:block"><path stroke="#121331" d="M35.537 36.105c-19.526 19.526-51.184 19.526-70.71 0-19.526-19.526-19.526-51.184 0-70.71 19.526-19.526 51.184-19.526 70.71 0 19.526 19.526 19.526 51.184 0 70.71z" style="display:block" transform="translate(250 250) scale(3.36996)"/><path stroke="#08A88A" d="M.182-.21v-34.361M.182.75l17.869-17.869" style="display:block" transform="translate(250 250) scale(3.36996)"/></g><g id="b" fill-opacity="0" stroke-linecap="round" stroke-linejoin="round" stroke-width="3.5" clip-path="url(#e)" style="display:block"><path stroke="#121331" d="M35.537 36.105c-19.526 19.526-51.184 19.526-70.71 0-19.526-19.526-19.526-51.184 0-70.71 19.526-19.526 51.184-19.526 70.71 0 19.526 19.526 19.526 51.184 0 70.71z" style="display:block" transform="translate(250 250) scale(3.36996)"/><path stroke="#08A88A" d="M.182-.21v-34.361M.182.75l17.869-17.869" style="display:block" transform="translate(250 250) scale(3.36996)"/></g><g id="c" fill-opacity="0" stroke-linecap="round" stroke-linejoin="round" stroke-width="3.5" clip-path="url(#f)" style="display:block"><path stroke="#121331" d="M35.537 36.105c-19.526 19.526-51.184 19.526-70.71 0-19.526-19.526-19.526-51.184 0-70.71 19.526-19.526 51.184-19.526 70.71 0 19.526 19.526 19.526 51.184 0 70.71z" style="display:block" transform="translate(250 250) scale(3.36996)"/><path stroke="#08A88A" d="M.182-.21v-34.361M.182.75l17.869-17.869" style="display:block" transform="translate(250 250) scale(3.36996)"/></g></defs><g clip-path="url(#g)"><g clip-path="url(#h)" opacity="0" style="display:block" transform="translate(-27.777 -27.777) scale(1.11111)"><g mask="url(#i)" style="display:block"><g filter="url(#j)" transform="rotate(-94 262.075 8.435) scale(2.4)"><path fill="#4BE1EC" d="M0-250c137.975 0 250 112.025 250 250S137.975 250 0 250-250 137.975-250 0-137.975-250 0-250z" class="design"/><path fill="#CB5EEE" d="M113.242-295.384c97.478 0 176.5 79.022 176.5 176.5s-79.022 176.5-176.5 176.5c-43.948 0-74.396-34.057-105.29-60.631-37.631-32.369-71.21-62.338-71.21-115.869 0-97.478 79.022-176.5 176.5-176.5z" class="design"/></g></g></g><g clip-path="url(#k)" opacity="0" style="display:block" transform="translate(-27.777 -27.777) scale(1.11111)"><g mask="url(#l)" style="display:block"><g filter="url(#m)" transform="rotate(-94 262.075 8.435) scale(2.4)"><path fill="#4BE1EC" d="M0-250c137.975 0 250 112.025 250 250S137.975 250 0 250-250 137.975-250 0-137.975-250 0-250z" class="design"/><path fill="#CB5EEE" d="M113.242-295.384c97.478 0 176.5 79.022 176.5 176.5s-79.022 176.5-176.5 176.5c-43.948 0-74.396-34.057-105.29-60.631-37.631-32.369-71.21-62.338-71.21-115.869 0-97.478 79.022-176.5 176.5-176.5z" class="design"/></g></g></g><g clip-path="url(#n)" style="display:block" transform="translate(-27.777 -27.777) scale(1.11111)"><g mask="url(#o)" style="display:block"><g filter="url(#p)" transform="rotate(-94 262.075 8.435) scale(2.4)"><path fill="#4BE1EC" d="M0-250c137.975 0 250 112.025 250 250S137.975 250 0 250-250 137.975-250 0-137.975-250 0-250z" class="design"/><path fill="#CB5EEE" d="M113.242-295.384c97.478 0 176.5 79.022 176.5 176.5s-79.022 176.5-176.5 176.5c-43.948 0-74.396-34.057-105.29-60.631-37.631-32.369-71.21-62.338-71.21-115.869 0-97.478 79.022-176.5 176.5-176.5z" class="design"/></g></g></g><path style="display:none"/></g></svg>